<?xml version="1.0" encoding="utf-8"?>
<!-- Generator: Adobe Illustrator 27.5.0, SVG Export Plug-In . SVG Version: 6.00 Build 0)  -->
<svg version="1.1" id="Layer_1" xmlns="http://www.w3.org/2000/svg" xmlns:xlink="http://www.w3.org/1999/xlink" x="0px" y="0px"
	 viewBox="0 0 2000 1866" style="enable-background:new 0 0 2000 1866;" xml:space="preserve">
<style type="text/css">
	.st0{opacity:0.14;fill:none;stroke:#00B1AF;stroke-width:5;stroke-miterlimit:10;}
</style>
<path class="st0" d="M1084.7,175C978.3,289.6,820,371.5,623,257.6C481.9,175.9,328.3,110,230,212.7c-58.6,61.2-73.5,175-66,302.7
	c12.8,217.3,92.7,467.7,140.4,598.8c32.7,89.7,68.1,176.9,105.8,260.8c38.6,86,80.8,171.7,126.2,256.2
	c29.8,55.6,30.3,61.7,38.3,57.9c18.3-8.7,41.1-63.5,79-155.5c44.6-108.1,95.3-230.9,169.4-321.2c57.4-70.1,113.1-105.2,176.6-105.2
	c63.5,0,119.2,35.1,176.6,105.2c74.1,90.3,124.8,213,169.4,321.1c38,92,60.7,148.1,79.1,156.9c8,3.8,8.4-3.7,38.2-59.3
	c45.3-84.5,87.6-170.2,126.2-256.1c37.7-83.9,73.1-171.2,105.8-260.9c47.8-131.1,127.7-381.5,140.4-598.8
	c7.5-127.7-7.3-241.5-66-302.7c-48.7-50.8-106.4-61.7-166.7-51.3c-73.4,12.6-155.2,54.7-233.1,100.3
	c-50.5,29.6-103.1,65.3-155.6,100.8l-5.5,3.4c-191.5,129.6-382,256.6-609.7,205.8c-68.2-15.2-244.5-81-286-245
	c218.4,105.2,273.9,113.2,430.1,93.7c128-15.9,249-96.9,370.7-179.2l5.3-3.9c53.5-36.1,107.1-72.5,164.5-106.1
	c91.6-53.7,190.4-103.5,290.6-120.8c113.3-19.4,222.5,1.8,316,99.5c92.7,96.8,117.8,249.6,108.1,414
	c-13.9,236.4-98.3,501.9-148.7,640.3c-32.4,88.9-69.3,179.3-110.2,270.5c-40.9,91.1-84.6,179.9-130.6,265.7
	c-83.4,155.5-163.6,190.2-247.1,150.3c-74-35.3-117.3-140-167.6-261.8c-40.5-98.1-86.6-209.6-146.5-282.6c-24.6-30-40.1-45-47.6-45
	c-7.6,0-23.1,15-47.7,45c-59.9,73-105.9,184.5-146.4,282.6c-50.2,121.7-93.5,226.5-167.5,261.9c-83.5,39.8-163.7,5.2-247.2-150.4
	c-46-85.8-89.8-174.7-130.6-265.7c-40.9-91.1-77.9-181.7-110.2-270.5C99.6,1025.8,15.2,760.2,1.3,523.9
	c-9.6-164.5,15.4-317.3,108.1-414C294.1-83.1,519,14.6,713.9,129.9C872.4,223.6,960.7,212.8,1084.7,175L1084.7,175z"/>
</svg>
