<?xml version="1.0" encoding="utf-8"?>
<!-- Generator: Adobe Illustrator 27.5.0, SVG Export Plug-In . SVG Version: 6.00 Build 0)  -->
<svg version="1.1" id="Camada_1" xmlns="http://www.w3.org/2000/svg" xmlns:xlink="http://www.w3.org/1999/xlink" x="0px" y="0px"
	 viewBox="0 0 800 800" style="enable-background:new 0 0 800 800;" xml:space="preserve">
<style type="text/css">
	.st0{fill:#009999;stroke:#0D9488;stroke-width:16;stroke-miterlimit:10;}
	.st1{display:none;fill:#009999;}
	.st2{fill:#009999;stroke:#0D9488;stroke-width:18;stroke-miterlimit:10;}
</style>
<g id="Layer_1-2">
	<path class="st0" d="M697.6,398.3c0,70.3,0,140.4,0,210.7c0,58.2-29.1,87.3-87,87.3c-140.4,0-280.9,0-421.3,0
		c-58.8,0-86.7-28.1-86.7-87c0-139.9,0-279.8,0-419.6c-0.1-59.2,28.6-88.4,87.7-88.6c141,0,282,0,423,0c54.1,0,84.2,30.3,84.3,84.8
		C697.6,256.7,697.6,327.5,697.6,398.3z M514.1,668.5c0,0,68.4-0.3,102-0.3c39.4,0,53.1-13.9,53.1-53.3c0-144.6,0-289.3,0-433.8
		c0-38.3-13.6-51.6-52.4-51.6c-144,0-288.1,0-432.1,0c-40.1,0-54,14-54,54.6c0,112.1,0,224.4,0,336.5c0,33.6-0.4,67.3,0,100.9
		c0.4,28.2,15.4,46.1,40.7,46.3c75,0.6,149.9,0,224.9,0c1,0,111.7-0.5,2.7-1.7L514.1,668.5z M428.9,667.3"/>
</g>
<path class="st1" d="M399,666.1V469.3h-41.7c0-17,0-32.9,0-48.6s0-32.6,0-50.7h39.8c3.4-24.2,5-46.8,10.1-68.3
	c9.5-40.4,38-67.6,79.2-69c28.8-1,57.8,6.9,86.6,12c4.1,0.7,9.9,7.9,10.2,12.3c1,23.4,0.4,46.8,0.4,71.1c-12.5,0-23-0.3-33.4,0
	c-36.4,0.9-38.4-9.5-36.4,38.8c0,1,1.3,1.8,3.1,4.4h68.3c-6.2,33.4-12,65.2-18.1,98.5h-53v198.7"/>
<path class="st2" d="M485.7,667.3V441.6c16.4,0,31.2,0.6,45.8-0.3c5.1-0.3,12.9-3,14.2-6.7c4-10.5,5.2-22,8.2-36.1H486
	c-5.7-80.8-0.9-87.7,68.2-100.5c5.7-31.7,4.7-33.2-25.2-39c-1.7-0.3-3.4-0.9-5.2-1.1c-59.7-9.1-94.8,20.7-95.5,80.9
	c-0.3,19.4,0,38.7,0,60.5l0,0h-41.4v42.8h42v225.2H485.7z"/>
</svg>
