<?xml version="1.0" encoding="UTF-8"?>
<svg id="Layer_2" data-name="Layer 2" xmlns="http://www.w3.org/2000/svg" viewBox="0 0 692.84 407.89">
  <defs>
    <style>
      .cls-1 {
        fill: #fff;
      }

      .cls-2 {
        fill: #4d4d4d;
      }

      .cls-3 {
        fill: #85d9d9;
      }

      .cls-4 {
        fill: #00b6b9;
      }

      .cls-5 {
        fill: #00b1af;
      }
    </style>
  </defs>
  <g id="Layer_1-2" data-name="Layer 1">
    <g>
      <g>
        <path class="cls-2" d="m36.92,267.74c-.68-1.69-1.69-3.26-3.38-4.73-2.36-1.91-4.84-2.7-8.1-2.7-6.98,0-10.58,4.16-10.58,9,0,2.25.79,6.19,8.1,9.12l7.54,3.04c13.84,5.63,17.67,13.51,17.67,22.06,0,14.29-10.13,24.08-24.2,24.08-8.67,0-13.84-3.26-17.67-7.54-4.05-4.5-5.85-9.45-6.3-14.63l11.37-2.48c0,3.71,1.35,7.2,3.15,9.57,2.14,2.7,5.29,4.5,9.79,4.5,6.98,0,12.38-5.07,12.38-12.61s-5.85-10.8-10.8-12.83l-7.2-3.04c-6.19-2.59-15.31-7.77-15.31-19.02,0-10.13,7.88-19.81,21.95-19.81,8.1,0,12.72,3.04,15.08,5.06,2.03,1.8,4.16,4.39,5.74,7.54l-9.23,5.4Z"/>
        <path class="cls-2" d="m95.21,278.77h11.03v47.38h-11.03v-4.95c-4.84,5.63-10.8,6.41-14.18,6.41-14.63,0-22.96-12.15-22.96-25.21,0-15.42,10.58-24.87,23.07-24.87,3.49,0,9.57.9,14.07,6.75v-5.52Zm-25.89,23.86c0,8.21,5.18,15.08,13.17,15.08,6.98,0,13.39-5.06,13.39-14.97s-6.42-15.31-13.39-15.31c-7.99,0-13.17,6.75-13.17,15.2Z"/>
        <path class="cls-2" d="m120.2,278.77h11.03v4.28c1.24-1.46,3.04-3.04,4.61-3.94,2.14-1.24,4.28-1.58,6.75-1.58,2.7,0,5.63.45,8.67,2.25l-4.5,10.02c-2.48-1.57-4.5-1.69-5.63-1.69-2.36,0-4.73.34-6.87,2.59-3.04,3.26-3.04,7.77-3.04,10.92v24.54h-11.03v-47.38Z"/>
        <path class="cls-2" d="m189.87,278.77h11.03v47.38h-11.03v-4.95c-4.84,5.63-10.8,6.41-14.18,6.41-14.63,0-22.96-12.15-22.96-25.21,0-15.42,10.58-24.87,23.07-24.87,3.49,0,9.57.9,14.07,6.75v-5.52Zm-25.89,23.86c0,8.21,5.18,15.08,13.17,15.08,6.98,0,13.39-5.06,13.39-14.97s-6.42-15.31-13.39-15.31c-7.99,0-13.17,6.75-13.17,15.2Z"/>
        <path class="cls-2" d="m214.85,244.1h11.03v38.72c4.73-4.84,9.9-5.29,12.72-5.29,8.67,0,12.61,4.5,13.96,6.42,2.93,4.28,3.04,9.79,3.04,13.17v29.04h-11.03v-28.02c0-2.81,0-5.85-2.14-8.22-1.24-1.35-3.38-2.48-6.19-2.48-3.71,0-6.64,1.8-8.1,3.94-1.58,2.25-2.25,5.85-2.25,11.93v22.85h-11.03v-82.05Z"/>
        <path class="cls-2" d="m334.94,255.58h-31.06v27.24h30.39v4.5h-30.39v34.33h31.06v4.5h-36.02v-75.07h36.02v4.5Z"/>
        <path class="cls-2" d="m353.62,244.1v82.05h-4.5v-82.05h4.5Z"/>
        <path class="cls-2" d="m374.33,244.1v55.82l18.91-19.7h5.85l-19.36,19.92,25.66,26h-6.08l-22.62-22.73-2.36,2.36v20.37h-4.5v-82.05h4.5Z"/>
        <path class="cls-2" d="m412.04,244.1h4.5v43.33c2.14-3.83,6.3-8.21,14.07-8.21,8.22,0,11.71,4.84,12.72,6.41,2.03,3.26,2.25,7.54,2.25,11.59v28.92h-4.5v-28.92c0-3.15-.11-6.64-1.8-9.23-1.01-1.69-3.49-4.5-9-4.5-6.3,0-9.57,3.38-11.25,6.42-2.03,3.6-2.48,7.88-2.48,12.38v23.86h-4.5v-82.05Z"/>
        <path class="cls-2" d="m496.79,280.23h4.5v45.92h-4.5v-8.21c-4.61,7.09-11.93,9.45-17.9,9.45-12.04,0-22.4-9.12-22.4-24.2,0-14.18,9-23.97,22.4-23.97,7.2,0,13.51,2.81,17.9,9v-7.99Zm-35.57,22.62c0,10.35,6.42,20.26,18.01,20.26s17.78-9.68,17.78-20.26c0-13.62-10.02-19.36-17.9-19.36-9.12,0-17.9,6.87-17.9,19.36Z"/>
        <path class="cls-2" d="m522.33,284.51v41.64h-4.5v-41.64h-5.06v-4.28h5.06v-16.43h4.5v16.43h7.99v4.28h-7.99Z"/>
        <path class="cls-2" d="m541.13,303.75c0,11.71,8.55,19.36,18.23,19.36,7.43,0,13.06-4.39,15.98-10.47l3.83,2.25c-2.7,5.18-8.78,12.49-20.15,12.49-14.29,0-22.62-10.58-22.62-23.97,0-15.98,11.03-24.2,22.28-24.2,12.38,0,21.72,9.9,21.72,24.54h-39.28Zm34.55-4.28c-1.13-9.12-7.88-15.98-17-15.98s-15.98,7.09-17.22,15.98h34.21Z"/>
        <path class="cls-2" d="m595.49,303.75c0,11.71,8.55,19.36,18.23,19.36,7.43,0,13.06-4.39,15.98-10.47l3.83,2.25c-2.7,5.18-8.78,12.49-20.15,12.49-14.29,0-22.62-10.58-22.62-23.97,0-15.98,11.03-24.2,22.28-24.2,12.38,0,21.72,9.9,21.72,24.54h-39.28Zm34.55-4.28c-1.13-9.12-7.88-15.98-17-15.98s-15.98,7.09-17.22,15.98h34.21Z"/>
        <path class="cls-2" d="m652.55,244.1v44.12c4.39-5.97,10.69-9,18.01-9,13.84,0,22.28,10.35,22.28,23.63s-8.55,24.54-22.51,24.54c-11.37,0-16.43-7.2-17.78-9.45v8.21h-4.5v-82.05h4.5Zm35.57,58.75c0-12.61-8.33-19.36-17.78-19.36s-18.01,6.42-18.01,19.13c0,11.48,6.3,20.48,17.9,20.48s17.9-9,17.9-20.26Z"/>
      </g>
      <g>
        <path class="cls-2" d="m125.84,392.91c0,8.47-6.51,14.98-14.98,14.98s-14.98-6.51-14.98-14.98,6.51-14.98,14.98-14.98,14.98,6.51,14.98,14.98Zm-2.94,0c0-6.93-5.18-12.32-12.04-12.32s-12.04,5.39-12.04,12.32,5.18,12.32,12.04,12.32,12.04-5.39,12.04-12.32Z"/>
        <path class="cls-2" d="m149.92,378.55h2.8v3.71c1.05-2.45,3.22-4.34,6.3-4.34.77,0,1.96.14,3.01.7l-1.4,2.52c-.28-.21-.84-.56-2.1-.56-5.74,0-5.81,7.63-5.81,11.2v15.33h-2.8v-28.56Z"/>
        <path class="cls-2" d="m186.95,381.22v25.9h-2.8v-25.9h-3.15v-2.66h3.15v-10.22h2.8v10.22h4.97v2.66h-4.97Z"/>
        <path class="cls-2" d="m213.34,356.08h2.8v26.95c1.33-2.38,3.92-5.11,8.75-5.11,5.11,0,7.28,3.01,7.91,3.99,1.26,2.03,1.4,4.69,1.4,7.21v17.99h-2.8v-17.99c0-1.96-.07-4.13-1.12-5.74-.63-1.05-2.17-2.8-5.6-2.8-3.92,0-5.95,2.1-7,3.99-1.26,2.24-1.54,4.9-1.54,7.7v14.84h-2.8v-51.04Z"/>
        <path class="cls-2" d="m286.84,392.91c0,8.47-6.51,14.98-14.98,14.98s-14.98-6.51-14.98-14.98,6.51-14.98,14.98-14.98,14.98,6.51,14.98,14.98Zm-2.94,0c0-6.93-5.18-12.32-12.04-12.32s-12.04,5.39-12.04,12.32,5.18,12.32,12.04,12.32,12.04-5.39,12.04-12.32Z"/>
        <path class="cls-2" d="m334.16,356.08h2.8v51.04h-2.8v-5.11c-2.87,4.41-7.42,5.88-11.06,5.88-7.21,0-14-5.18-14-15.19s7.07-14.77,14-14.77c5.18,0,8.82,2.38,11.06,5.6v-27.44Zm-22.12,36.54c0,8.33,5.46,12.6,11.2,12.6s11.06-4.27,11.06-12.6c0-6.65-4.13-12.04-11.2-12.04-5.88,0-11.06,4.06-11.06,12.04Z"/>
        <path class="cls-2" d="m391,392.91c0,8.47-6.51,14.98-14.98,14.98s-14.98-6.51-14.98-14.98,6.51-14.98,14.98-14.98,14.98,6.51,14.98,14.98Zm-2.94,0c0-6.93-5.18-12.32-12.04-12.32s-12.04,5.39-12.04,12.32,5.18,12.32,12.04,12.32,12.04-5.39,12.04-12.32Z"/>
        <path class="cls-2" d="m415.08,378.55h2.8v4.48c1.33-2.38,3.92-5.11,8.75-5.11,5.11,0,7.28,3.01,7.91,3.99,1.26,2.03,1.4,4.69,1.4,7.21v17.99h-2.8v-17.99c0-1.96-.07-4.13-1.12-5.74-.63-1.05-2.17-2.8-5.6-2.8-3.92,0-5.95,2.1-7,3.99-1.26,2.24-1.54,4.9-1.54,7.7v14.84h-2.8v-28.56Z"/>
        <path class="cls-2" d="m464.85,381.22v25.9h-2.8v-25.9h-3.15v-2.66h3.15v-10.22h2.8v10.22h4.97v2.66h-4.97Z"/>
        <path class="cls-2" d="m490.12,369.03c0-1.54,1.12-2.59,2.52-2.59s2.52,1.05,2.52,2.59-1.12,2.59-2.52,2.59-2.52-1.05-2.52-2.59Zm3.92,9.52v28.56h-2.8v-28.56h2.8Z"/>
        <path class="cls-2" d="m542.83,385.28c-1.89-2.17-5.18-4.69-9.87-4.69-7,0-11.9,5.39-11.9,12.39,0,8.19,6.23,12.25,11.76,12.25,4.55,0,8.12-2.66,10.36-5.11v3.78c-1.89,1.68-5.39,3.99-10.43,3.99-8.61,0-14.63-6.37-14.63-14.84s5.67-15.12,14.84-15.12c2.03,0,5.95.35,9.87,3.64v3.71Z"/>
        <path class="cls-2" d="m578.88,383.8c-.98-2.24-2.94-3.22-4.97-3.22-3.22,0-4.83,2.45-4.83,4.55,0,2.8,2.24,3.71,5.04,4.83,2.87,1.12,5.53,1.89,7.35,4.2,1.19,1.47,1.47,3.01,1.47,4.62,0,6.51-4.9,9.1-9.31,9.1-4.76,0-8.68-2.8-9.87-7.56l2.73-.84c.98,3.78,3.99,5.74,7.14,5.74,3.64,0,6.37-2.59,6.37-6.3,0-3.22-2.03-4.41-6.37-6.16-2.87-1.19-4.97-2.1-6.23-3.78-.63-.84-1.26-2.03-1.26-3.71,0-4.34,3.29-7.35,7.63-7.35,3.36,0,6.16,1.54,7.49,4.62l-2.38,1.26Z"/>
      </g>
      <g>
        <path class="cls-5" d="m328.27,31.88l1.98.41c.28-.07,1.97-.4,2.02-.45,4.33-.86,11.66-5.63,19.85-10.96,23.17-15.08,51.97-33.83,75.08-8.25,10.1,11.17,12.83,28.8,11.77,47.8-.41,7.46-1.4,15.17-2.73,22.76-6.1.89-12.27,1.66-18.49,2.33,1.72-8.67,3.03-17.58,3.5-26.06.82-14.75-.8-27.88-7.19-34.95-12.96-14.36-34.76-.17-52.28,11.24-9.74,6.34-18.45,12.01-26.11,13.53v-.03s-1.1.22-1.1.22c-1.96.41-2.95.61-4.33.61s-2.37-.2-4.32-.61l-1.09-.22v.03c-7.67-1.52-16.37-7.19-26.12-13.53-17.52-11.41-39.32-25.59-52.28-11.24-6.39,7.07-8,20.2-7.19,34.95.47,8.48,1.77,17.39,3.5,26.06-6.22-.67-12.39-1.44-18.49-2.33-1.33-7.59-2.32-15.3-2.73-22.76-1.05-19,1.68-36.63,11.77-47.8,23.11-25.58,51.91-6.83,75.08,8.25,8.2,5.33,15.52,10.1,19.86,10.96l.03.04Zm102.63,75.59c-2.79,10.7-5.79,20.12-8.12,26.91-3.53,10.26-7.55,20.71-12.01,31.23-4.45,10.51-9.21,20.77-14.23,30.69-9.09,17.96-17.82,21.96-26.91,17.36-8.06-4.07-12.77-16.18-18.24-30.23-4.41-11.33-9.42-24.2-15.95-32.63-2.67-3.46-4.37-5.2-5.19-5.2s-2.51,1.74-5.19,5.2c-6.52,8.43-11.54,21.3-15.95,32.63-5.48,14.06-10.18,26.15-18.24,30.23-9.09,4.6-17.83.61-26.91-17.35-5.02-9.91-9.78-20.17-14.23-30.69-4.46-10.53-8.48-20.97-12.01-31.23-2.37-6.89-5.43-16.52-8.26-27.44,6.28.8,12.61,1.49,18.97,2.09,2.16,7.66,4.34,14.42,6.11,19.58,3.56,10.36,7.42,20.43,11.52,30.12,4.2,9.93,8.81,19.82,13.74,29.58,3.25,6.41,2.21,9.93,3.07,9.5,2-1.01,5.56-10.15,9.7-20.78,4.86-12.48,10.38-26.65,18.45-37.07,6.25-8.1,12.31-12.15,19.23-12.15s12.98,4.05,19.23,12.15c8.07,10.43,13.59,24.6,18.45,37.08,4.13,10.63,7.69,19.77,9.69,20.78.87.43-.17-3.09,3.08-9.51,4.94-9.76,9.54-19.65,13.74-29.57,4.1-9.69,7.96-19.76,11.52-30.12,1.74-5.07,3.88-11.69,6-19.19,6.35-.55,12.67-1.2,18.94-1.94h0Z"/>
        <path class="cls-4" d="m160.2,44.46l-.16-.06s-.15-.02-.1-.03c.05.07.15.16.24.23.18.15.37.29.56.42.38.27.78.53,1.17.79.79.52,1.58,1.03,2.38,1.53,1.6.99,3.23,1.95,4.86,2.89,3.25,1.9,6.54,3.73,9.87,5.48,6.65,3.5,13.36,6.84,20.16,9.94,13.59,6.23,27.45,11.71,41.54,16.28,28.16,9.18,57.3,14.78,86.55,15.42,29.23.68,58.48-3.76,86.33-13.35,13.94-4.75,27.52-10.74,40.69-17.72,6.6-3.47,13.07-7.23,19.49-11.14,3.21-1.95,6.38-3.99,9.53-6.07,3.19-2.03,6.3-4.18,9.46-6.29-20.84,22.05-46.34,40.23-74.84,52.45-14.23,6.13-29.2,10.68-44.5,13.6-7.65,1.47-15.39,2.47-23.15,3.14-7.77.61-15.57.82-23.35.67-31.17-.69-61.9-7.78-90.36-19.47-14.23-5.87-27.95-12.87-40.94-20.94-6.49-4.06-12.82-8.34-18.89-12.97-3.03-2.32-6.02-4.69-8.92-7.16-1.44-1.25-2.86-2.52-4.26-3.82-.7-.65-1.39-1.31-2.06-1.98-.33-.34-.66-.69-.98-1.04-.16-.18-.32-.36-.47-.55-.07-.1-.15-.18-.2-.32-.01-.09.1-.08.11-.06.03.01.06.03.08.04l.15.1Z"/>
        <g>
          <path class="cls-3" d="m265.19,84.13v29.45h29.45v-29.45h-29.45Zm14.72,23.47c-4.83,0-8.74-3.92-8.74-8.75s3.92-8.75,8.74-8.75,8.75,3.92,8.75,8.75-3.92,8.75-8.75,8.75Z"/>
          <path class="cls-1" d="m288.66,98.85c0,4.83-3.92,8.75-8.75,8.75s-8.74-3.92-8.74-8.75,3.92-8.75,8.74-8.75,8.75,3.92,8.75,8.75Z"/>
        </g>
        <g>
          <path class="cls-3" d="m366.41,84.13v29.45h29.45v-29.45h-29.45Zm14.72,23.47c-4.83,0-8.74-3.92-8.74-8.75s3.92-8.75,8.74-8.75,8.75,3.92,8.75,8.75-3.92,8.75-8.75,8.75Z"/>
          <path class="cls-1" d="m389.88,98.85c0,4.83-3.92,8.75-8.75,8.75s-8.74-3.92-8.74-8.75,3.92-8.75,8.74-8.75,8.75,3.92,8.75,8.75Z"/>
        </g>
        <g>
          <path class="cls-3" d="m315.8,88.96v29.45h29.45v-29.45h-29.45Zm14.72,23.47c-4.83,0-8.74-3.92-8.74-8.75s3.92-8.75,8.74-8.75,8.75,3.92,8.75,8.75-3.92,8.75-8.75,8.75Z"/>
          <path class="cls-1" d="m339.27,103.69c0,4.83-3.92,8.75-8.75,8.75s-8.74-3.92-8.74-8.75,3.92-8.75,8.74-8.75,8.75,3.92,8.75,8.75Z"/>
        </g>
      </g>
    </g>
  </g>
</svg>