<?xml version="1.0" encoding="utf-8"?>
<!-- Generator: Adobe Illustrator 27.5.0, SVG Export Plug-In . SVG Version: 6.00 Build 0)  -->
<svg version="1.1" id="Layer_2_00000049911886933094163290000015603144076593561784_"
	 xmlns="http://www.w3.org/2000/svg" xmlns:xlink="http://www.w3.org/1999/xlink" x="0px" y="0px" viewBox="0 0 1976.1 407.9"
	 style="enable-background:new 0 0 1976.1 407.9;" xml:space="preserve">
<style type="text/css">
	.st0{fill:#FFFFFF;}
	.st1{fill:#FFFFFF;}
	.st2{fill:#FFFFFF;}
	.st3{fill:#85D9D9;}
	.st4{fill:#FFFFFF;}
</style>
<g id="Layer_1-2">
	<g>
		<g>
			<g>
				<path class="st0" d="M757.4,90.9c-1.3-3.1-3.1-6.1-6.3-8.8c-4.4-3.5-9-5-15-5c-13,0-19.7,7.7-19.7,16.7c0,4.2,1.5,11.5,15,16.9
					l14,5.6c25.7,10.5,32.8,25.1,32.8,41c0,26.6-18.8,44.7-45,44.7c-16.1,0-25.7-6.1-32.8-14c-7.5-8.4-10.9-17.6-11.7-27.2l21.1-4.6
					c0,6.9,2.5,13.4,5.9,17.8c4,5,9.8,8.4,18.2,8.4c13,0,23-9.4,23-23.4c0-14-10.9-20.1-20.1-23.8l-13.4-5.6
					c-11.5-4.8-28.4-14.4-28.4-35.3c0-18.8,14.6-36.8,40.8-36.8c15,0,23.6,5.6,28,9.4c3.8,3.3,7.7,8.2,10.7,14L757.4,90.9
					L757.4,90.9z"/>
				<path class="st0" d="M865.7,111.4h20.5v88h-20.5v-9.2c-9,10.5-20.1,11.9-26.3,11.9c-27.2,0-42.7-22.6-42.7-46.8
					c0-28.6,19.7-46.2,42.9-46.2c6.5,0,17.8,1.7,26.1,12.5V111.4L865.7,111.4z M817.6,155.7c0,15.3,9.6,28,24.5,28
					c13,0,24.9-9.4,24.9-27.8s-11.9-28.4-24.9-28.4C827.3,127.5,817.6,140,817.6,155.7z"/>
				<path class="st0" d="M912.2,111.4h20.5v8c2.3-2.7,5.6-5.6,8.6-7.3c4-2.3,8-2.9,12.5-2.9c5,0,10.5,0.8,16.1,4.2l-8.4,18.6
					c-4.6-2.9-8.4-3.1-10.5-3.1c-4.4,0-8.8,0.6-12.8,4.8c-5.6,6.1-5.6,14.4-5.6,20.3v45.6h-20.5L912.2,111.4L912.2,111.4z"/>
				<path class="st0" d="M1041.6,111.4h20.5v88h-20.5v-9.2c-9,10.5-20.1,11.9-26.3,11.9c-27.2,0-42.7-22.6-42.7-46.8
					c0-28.6,19.7-46.2,42.9-46.2c6.5,0,17.8,1.7,26.1,12.5V111.4L1041.6,111.4z M993.5,155.7c0,15.3,9.6,28,24.5,28
					c13,0,24.9-9.4,24.9-27.8s-11.9-28.4-24.9-28.4C1003.1,127.5,993.5,140,993.5,155.7z"/>
				<path class="st0" d="M1088,47h20.5v71.9c8.8-9,18.4-9.8,23.6-9.8c16.1,0,23.4,8.4,25.9,11.9c5.4,8,5.6,18.2,5.6,24.5v54h-20.5
					v-52.1c0-5.2,0-10.9-4-15.3c-2.3-2.5-6.3-4.6-11.5-4.6c-6.9,0-12.3,3.3-15,7.3c-2.9,4.2-4.2,10.9-4.2,22.2v42.5H1088L1088,47
					L1088,47z"/>
				<path class="st0" d="M1311.2,68.3h-57.7v50.6h56.5v8.4h-56.5v63.8h57.7v8.4h-66.9V59.9h66.9V68.3L1311.2,68.3z"/>
				<path class="st0" d="M1345.9,47v152.4h-8.4V47L1345.9,47L1345.9,47z"/>
				<path class="st0" d="M1384.3,47v103.7l35.1-36.6h10.9l-36,37l47.7,48.3h-11.3l-42-42.2l-4.4,4.4v37.8h-8.4V47L1384.3,47
					L1384.3,47z"/>
				<path class="st0" d="M1454.4,47h8.4v80.5c4-7.1,11.7-15.3,26.1-15.3c15.3,0,21.8,9,23.6,11.9c3.8,6.1,4.2,14,4.2,21.5v53.7h-8.4
					v-53.7c0-5.9-0.2-12.3-3.3-17.1c-1.9-3.1-6.5-8.4-16.7-8.4c-11.7,0-17.8,6.3-20.9,11.9c-3.8,6.7-4.6,14.6-4.6,23v44.3h-8.4
					L1454.4,47L1454.4,47z"/>
				<path class="st0" d="M1611.9,114.1h8.4v85.3h-8.4v-15.3c-8.6,13.2-22.2,17.6-33.3,17.6c-22.4,0-41.6-16.9-41.6-45
					c0-26.3,16.7-44.5,41.6-44.5c13.4,0,25.1,5.2,33.3,16.7V114.1L1611.9,114.1z M1545.8,156.1c0,19.2,11.9,37.6,33.5,37.6
					c21.5,0,33-18,33-37.6c0-25.3-18.6-36-33.3-36C1562.1,120.2,1545.8,132.9,1545.8,156.1L1545.8,156.1z"/>
				<path class="st0" d="M1659.3,122v77.4h-8.4V122h-9.4v-8h9.4V83.6h8.4v30.5h14.8v8H1659.3z"/>
				<path class="st0" d="M1694.2,157.8c0,21.8,15.9,36,33.9,36c13.8,0,24.3-8.2,29.7-19.5l7.1,4.2c-5,9.6-16.3,23.2-37.4,23.2
					c-26.6,0-42-19.7-42-44.5c0-29.7,20.5-45,41.4-45c23,0,40.4,18.4,40.4,45.6L1694.2,157.8L1694.2,157.8z M1758.4,149.8
					c-2.1-16.9-14.6-29.7-31.6-29.7c-16.9,0-29.7,13.2-32,29.7H1758.4L1758.4,149.8z"/>
				<path class="st0" d="M1795.2,157.8c0,21.8,15.9,36,33.9,36c13.8,0,24.3-8.2,29.7-19.5l7.1,4.2c-5,9.6-16.3,23.2-37.4,23.2
					c-26.6,0-42-19.7-42-44.5c0-29.7,20.5-45,41.4-45c23,0,40.4,18.4,40.4,45.6L1795.2,157.8L1795.2,157.8z M1859.4,149.8
					c-2.1-16.9-14.6-29.7-31.6-29.7c-16.9,0-29.7,13.2-32,29.7H1859.4L1859.4,149.8z"/>
				<path class="st0" d="M1901.3,47v82c8.2-11.1,19.9-16.7,33.5-16.7c25.7,0,41.4,19.2,41.4,43.9s-15.9,45.6-41.8,45.6
					c-21.1,0-30.5-13.4-33-17.6v15.3h-8.4V47L1901.3,47L1901.3,47z M1967.3,156.1c0-23.4-15.5-36-33-36c-17.6,0-33.5,11.9-33.5,35.5
					c0,21.3,11.7,38.1,33.3,38.1C1955.7,193.7,1967.4,177,1967.3,156.1L1967.3,156.1z"/>
			</g>
			<g>
				<path class="st0" d="M922.7,323.5c0,15.7-12.1,27.8-27.8,27.8c-15.7,0-27.8-12.1-27.8-27.8c0-15.7,12.1-27.8,27.8-27.8
					C910.6,295.6,922.7,307.7,922.7,323.5z M917.2,323.5c0-12.9-9.6-22.9-22.4-22.9s-22.4,10-22.4,22.9c0,12.9,9.6,22.9,22.4,22.9
					S917.2,336.3,917.2,323.5z"/>
				<path class="st0" d="M967.4,296.8h5.2v6.9c2-4.6,6-8.1,11.7-8.1c1.4,0,3.6,0.3,5.6,1.3l-2.6,4.7c-0.5-0.4-1.6-1-3.9-1
					c-10.7,0-10.8,14.2-10.8,20.8v28.5h-5.2V296.8z"/>
				<path class="st0" d="M1036.2,301.7v48.1h-5.2v-48.1h-5.9v-4.9h5.9v-19h5.2v19h9.2v4.9H1036.2z"/>
				<path class="st0" d="M1085.2,255h5.2v50.1c2.5-4.4,7.3-9.5,16.3-9.5c9.5,0,13.5,5.6,14.7,7.4c2.3,3.8,2.6,8.7,2.6,13.4v33.4
					h-5.2v-33.4c0-3.6-0.1-7.7-2.1-10.7c-1.2-2-4-5.2-10.4-5.2c-7.3,0-11.1,3.9-13,7.4c-2.3,4.2-2.9,9.1-2.9,14.3v27.6h-5.2V255
					L1085.2,255z"/>
				<path class="st0" d="M1221.8,323.5c0,15.7-12.1,27.8-27.8,27.8s-27.8-12.1-27.8-27.8c0-15.7,12.1-27.8,27.8-27.8
					S1221.8,307.7,1221.8,323.5z M1216.3,323.5c0-12.9-9.6-22.9-22.4-22.9s-22.4,10-22.4,22.9c0,12.9,9.6,22.9,22.4,22.9
					S1216.3,336.3,1216.3,323.5z"/>
				<path class="st0" d="M1309.7,255h5.2v94.8h-5.2v-9.5c-5.3,8.2-13.8,10.9-20.5,10.9c-13.4,0-26-9.6-26-28.2s13.1-27.4,26-27.4
					c9.6,0,16.4,4.4,20.5,10.4V255L1309.7,255z M1268.6,322.9c0,15.5,10.1,23.4,20.8,23.4s20.5-7.9,20.5-23.4
					c0-12.4-7.7-22.4-20.8-22.4C1278.2,300.5,1268.6,308.1,1268.6,322.9z"/>
				<path class="st0" d="M1415.3,323.5c0,15.7-12.1,27.8-27.8,27.8c-15.7,0-27.8-12.1-27.8-27.8c0-15.7,12.1-27.8,27.8-27.8
					C1403.2,295.6,1415.3,307.7,1415.3,323.5z M1409.8,323.5c0-12.9-9.6-22.9-22.4-22.9s-22.4,10-22.4,22.9
					c0,12.9,9.6,22.9,22.4,22.9S1409.8,336.3,1409.8,323.5z"/>
				<path class="st0" d="M1460,296.8h5.2v8.3c2.5-4.4,7.3-9.5,16.3-9.5c9.5,0,13.5,5.6,14.7,7.4c2.3,3.8,2.6,8.7,2.6,13.4v33.4h-5.2
					v-33.4c0-3.6-0.1-7.7-2.1-10.7c-1.2-2-4-5.2-10.4-5.2c-7.3,0-11.1,3.9-13,7.4c-2.3,4.2-2.9,9.1-2.9,14.3v27.6h-5.2V296.8
					L1460,296.8z"/>
				<path class="st0" d="M1552.5,301.7v48.1h-5.2v-48.1h-5.9v-4.9h5.9v-19h5.2v19h9.2v4.9H1552.5z"/>
				<path class="st0" d="M1599.5,279.1c0-2.9,2.1-4.8,4.7-4.8c2.6,0,4.7,2,4.7,4.8s-2.1,4.8-4.7,4.8
					C1601.5,283.9,1599.5,281.9,1599.5,279.1z M1606.8,296.8v53.1h-5.2v-53.1H1606.8z"/>
				<path class="st0" d="M1697.4,309.3c-3.5-4-9.6-8.7-18.3-8.7c-13,0-22.1,10-22.1,23c0,15.2,11.6,22.8,21.8,22.8
					c8.5,0,15.1-4.9,19.2-9.5v7c-3.5,3.1-10,7.4-19.4,7.4c-16,0-27.2-11.8-27.2-27.6c0-15.7,10.5-28.1,27.6-28.1
					c3.8,0,11.1,0.7,18.3,6.8V309.3L1697.4,309.3z"/>
				<path class="st0" d="M1764.4,306.5c-1.8-4.2-5.5-6-9.2-6c-6,0-9,4.6-9,8.5c0,5.2,4.2,6.9,9.4,9c5.3,2.1,10.3,3.5,13.7,7.8
					c2.2,2.7,2.7,5.6,2.7,8.6c0,12.1-9.1,16.9-17.3,16.9c-8.8,0-16.1-5.2-18.3-14l5.1-1.6c1.8,7,7.4,10.7,13.3,10.7
					c6.8,0,11.8-4.8,11.8-11.7c0-6-3.8-8.2-11.8-11.4c-5.3-2.2-9.2-3.9-11.6-7c-1.2-1.6-2.3-3.8-2.3-6.9c0-8.1,6.1-13.7,14.2-13.7
					c6.2,0,11.4,2.9,13.9,8.6L1764.4,306.5L1764.4,306.5z"/>
			</g>
		</g>
		<g>
			<path class="st1" d="M320.8,61.4l3.7,0.8c0.5-0.1,3.7-0.8,3.8-0.8c8.1-1.6,21.9-10.6,37.3-20.6c43.6-28.3,97.7-63.6,141.1-15.5
				c19,21,24.1,54.1,22.1,89.9c-0.8,14-2.6,28.5-5.1,42.8c-11.5,1.7-23.1,3.1-34.8,4.4c3.2-16.3,5.7-33,6.6-49
				c1.5-27.7-1.5-52.4-13.5-65.7c-24.4-27-65.3-0.3-98.3,21.1c-18.3,11.9-34.7,22.6-49.1,25.4v-0.1l-2.1,0.4
				c-3.7,0.8-5.5,1.1-8.1,1.1s-4.5-0.4-8.1-1.1l-2-0.4v0.1c-14.4-2.9-30.8-13.5-49.1-25.4c-32.9-21.4-73.9-48.1-98.3-21.1
				c-12,13.3-15,38-13.5,65.7c0.9,15.9,3.3,32.7,6.6,49c-11.7-1.3-23.3-2.7-34.8-4.4c-2.5-14.3-4.4-28.8-5.1-42.8
				c-2-35.7,3.2-68.9,22.1-89.9c43.4-48.1,97.6-12.8,141.1,15.5C298.8,50.7,312.6,59.7,320.8,61.4L320.8,61.4L320.8,61.4z
				 M513.7,203.5c-5.2,20.1-10.9,37.8-15.3,50.6c-6.6,19.3-14.2,38.9-22.6,58.7c-8.4,19.8-17.3,39-26.7,57.7
				c-17.1,33.8-33.5,41.3-50.6,32.6c-15.2-7.7-24-30.4-34.3-56.8c-8.3-21.3-17.7-45.5-30-61.3c-5-6.5-8.2-9.8-9.8-9.8
				s-4.7,3.3-9.8,9.8c-12.3,15.8-21.7,40-30,61.3c-10.3,26.4-19.1,49.2-34.3,56.8c-17.1,8.6-33.5,1.1-50.6-32.6
				c-9.4-18.6-18.4-37.9-26.7-57.7c-8.4-19.8-15.9-39.4-22.6-58.7c-4.5-13-10.2-31.1-15.5-51.6c11.8,1.5,23.7,2.8,35.7,3.9
				c4.1,14.4,8.2,27.1,11.5,36.8c6.7,19.5,13.9,38.4,21.7,56.6c7.9,18.7,16.6,37.3,25.8,55.6c6.1,12,4.2,18.7,5.8,17.9
				c3.8-1.9,10.5-19.1,18.2-39.1c9.1-23.5,19.5-50.1,34.7-69.7c11.7-15.2,23.1-22.8,36.1-22.8c13,0,24.4,7.6,36.1,22.8
				c15.2,19.6,25.5,46.2,34.7,69.7c7.8,20,14.5,37.2,18.2,39.1c1.6,0.8-0.3-5.8,5.8-17.9c9.3-18.3,17.9-36.9,25.8-55.6
				c7.7-18.2,15-37.1,21.7-56.6c3.3-9.5,7.3-22,11.3-36.1C490.1,206.2,502,204.9,513.7,203.5L513.7,203.5L513.7,203.5z"/>
			<path class="st2" d="M4.9,85.1l-0.3-0.1c0,0-0.3,0-0.2-0.1c0.1,0.1,0.3,0.3,0.5,0.4c0.3,0.3,0.7,0.5,1.1,0.8
				c0.7,0.5,1.5,1,2.2,1.5c1.5,1,3,1.9,4.5,2.9c3,1.9,6.1,3.7,9.1,5.4c6.1,3.6,12.3,7,18.6,10.3c12.5,6.6,25.1,12.9,37.9,18.7
				c25.5,11.7,51.6,22,78.1,30.6c52.9,17.3,107.7,27.8,162.7,29c54.9,1.3,109.9-7.1,162.3-25.1c26.2-8.9,51.7-20.2,76.5-33.3
				c12.4-6.5,24.6-13.6,36.6-20.9c6-3.7,12-7.5,17.9-11.4c6-3.8,11.8-7.9,17.8-11.8c-39.2,41.4-87.1,75.6-140.7,98.6
				c-26.7,11.5-54.9,20.1-83.7,25.6c-14.4,2.8-28.9,4.6-43.5,5.9c-14.6,1.1-29.3,1.5-43.9,1.3c-58.6-1.3-116.4-14.6-169.9-36.6
				c-26.7-11-52.5-24.2-77-39.4c-12.2-7.6-24.1-15.7-35.5-24.4c-5.7-4.4-11.3-8.8-16.8-13.5c-2.7-2.3-5.4-4.7-8-7.2
				c-1.3-1.2-2.6-2.5-3.9-3.7c-0.6-0.6-1.2-1.3-1.8-2c-0.3-0.3-0.6-0.7-0.9-1c-0.1-0.2-0.3-0.3-0.4-0.6c0-0.2,0.2-0.2,0.2-0.1
				c0.1,0,0.1,0.1,0.2,0.1L4.9,85.1L4.9,85.1z"/>
			<g>
				<path class="st3" d="M202.2,159.6V215h55.4v-55.4C257.6,159.6,202.2,159.6,202.2,159.6z M229.9,203.7c-9.1,0-16.4-7.4-16.4-16.4
					c0-9.1,7.4-16.4,16.4-16.4c9.1,0,16.4,7.4,16.4,16.4C246.4,196.4,239,203.7,229.9,203.7z"/>
				<path class="st4" d="M246.4,187.3c0,9.1-7.4,16.4-16.4,16.4c-9.1,0-16.4-7.4-16.4-16.4c0-9.1,7.4-16.4,16.4-16.4
					C239,170.8,246.4,178.2,246.4,187.3z"/>
			</g>
			<g>
				<path class="st3" d="M392.5,159.6V215h55.4v-55.4C447.9,159.6,392.5,159.6,392.5,159.6z M420.2,203.7c-9.1,0-16.4-7.4-16.4-16.4
					c0-9.1,7.4-16.4,16.4-16.4c9.1,0,16.4,7.4,16.4,16.4C436.6,196.4,429.3,203.7,420.2,203.7z"/>
				<path class="st4" d="M436.6,187.3c0,9.1-7.4,16.4-16.4,16.4c-9.1,0-16.4-7.4-16.4-16.4c0-9.1,7.4-16.4,16.4-16.4
					C429.2,170.8,436.6,178.2,436.6,187.3z"/>
			</g>
			<g>
				<path class="st3" d="M297.4,168.7v55.4h55.4v-55.4C352.7,168.7,297.4,168.7,297.4,168.7z M325,212.8c-9.1,0-16.4-7.4-16.4-16.4
					c0-9.1,7.4-16.4,16.4-16.4c9.1,0,16.4,7.4,16.4,16.4C341.5,205.5,334.1,212.8,325,212.8z"/>
				<path class="st4" d="M341.5,196.4c0,9.1-7.4,16.4-16.4,16.4c-9.1,0-16.4-7.4-16.4-16.4c0-9.1,7.4-16.4,16.4-16.4
					C334.1,179.9,341.5,187.3,341.5,196.4z"/>
			</g>
		</g>
	</g>
</g>
</svg>
