<?xml version="1.0" encoding="utf-8"?>
<!-- Generator: Adobe Illustrator 27.5.0, SVG Export Plug-In . SVG Version: 6.00 Build 0)  -->
<svg version="1.1" id="Camada_1" xmlns="http://www.w3.org/2000/svg" xmlns:xlink="http://www.w3.org/1999/xlink" x="0px" y="0px"
	 viewBox="0 0 800 800" style="enable-background:new 0 0 800 800;" xml:space="preserve">
<style type="text/css">
	.st0{fill:#009999;}
	.st1{display:none;fill:#009999;}
</style>
<g id="Layer_1-2">
	<path class="st0" d="M-184.9,609.5c0,0,68.4-0.3,102-0.3c39.4,0,53.1-13.9,53.1-53.3c0-144.6,0-289.3,0-433.8
		c0-38.3-13.6-51.6-52.4-51.6c-144,0-288.1,0-432.1,0c-40.1,0-54,14-54,54.6c0,112.1,0,224.4,0,336.5c0,33.6-0.4,67.3,0,100.9
		c0.4,28.2,15.4,46.1,40.7,46.3c75,0.6,149.9,0,224.9,0c1,0,111.7-0.5,2.7-1.7L-184.9,609.5z M-270.1,608.3"/>
</g>
<path class="st1" d="M399,666.1V469.3h-41.7c0-17,0-32.9,0-48.6s0-32.6,0-50.7h39.8c3.4-24.2,5-46.8,10.1-68.3
	c9.5-40.4,38-67.6,79.2-69c28.8-1,57.8,6.9,86.6,12c4.1,0.7,9.9,7.9,10.2,12.3c1,23.4,0.4,46.8,0.4,71.1c-12.5,0-23-0.3-33.4,0
	c-36.4,0.9-38.4-9.5-36.4,38.8c0,1,1.3,1.8,3.1,4.4h68.3c-6.2,33.4-12,65.2-18.1,98.5h-53v198.7"/>
<g>
	<path class="st0" d="M93.8,231.6c3.5-8.5,5.8-17.9,10.8-25.4c10.2-15.3,25.7-21.8,43.9-22.3c1,0,2,0,3,0c165.3,0,330.7,0,496,0
		c23.3,0,41.5,9.1,51.7,30.6c3.5,7.5,5.6,16.4,5.6,24.7c0.4,106.5,0.4,212.9,0.2,319.4c-0.1,32.6-23.6,55.2-56.9,55.2
		c-138.7,0-277.4,0-416,0c-27.5,0-54.9,0.2-82.4,0c-22.9-0.2-40.2-10.1-50.4-30.8c-2.6-5.2-3.7-11.2-5.5-16.9
		C93.8,454.5,93.8,343.1,93.8,231.6z M155.6,219.8c1.5,1.7,2.2,2.6,3,3.4c67.1,66.8,134.2,133.7,201.4,200.3
		c23.5,23.3,55.6,23,79.2-0.4C506,356.8,572.7,290.4,639.4,224c1.1-1.1,2.1-2.4,3.6-4.2C480.3,219.8,318.6,219.8,155.6,219.8z
		 M159,577.4c159.7,0,321.6,0,480.6,0C590.4,527.1,540,475.7,489,423.6c-8.8,9-16.8,17.5-25.2,25.6c-25.3,24.6-55.2,32.7-89.4,23.6
		c-15.7-4.2-28.9-13-40.3-24.5c-7.9-8-15.8-16.1-24.4-24.9C258.7,475.6,208.3,527,159,577.4z M130,552.2
		c51.2-52.2,101.7-103.6,150.6-153.4c-49-49.8-99.6-101.2-150.6-153C130,348.1,130,449.6,130,552.2z M668.8,552.7
		c0-103.3,0-204.8,0-307.8c-51.5,52.4-102.1,103.7-151.2,153.7C567.1,449,617.5,500.4,668.8,552.7z"/>
</g>
</svg>
