<?xml version="1.0" encoding="utf-8"?>
<!-- Generator: Adobe Illustrator 27.5.0, SVG Export Plug-In . SVG Version: 6.00 Build 0)  -->
<svg version="1.1" id="Camada_1" xmlns="http://www.w3.org/2000/svg" xmlns:xlink="http://www.w3.org/1999/xlink" x="0px" y="0px"
	 viewBox="0 0 800 800" style="enable-background:new 0 0 800 800;" xml:space="preserve">
<style type="text/css">
	.st0{fill:#009999;stroke:#0D9488;stroke-width:16;stroke-miterlimit:10;}
	.st1{display:none;fill:#009999;}
	.st2{fill:#009999;}
</style>
<g id="Layer_1-2">
	<path class="st0" d="M-184.9,609.5c0,0,68.4-0.3,102-0.3c39.4,0,53.1-13.9,53.1-53.3c0-144.6,0-289.3,0-433.8
		c0-38.3-13.6-51.6-52.4-51.6c-144,0-288.1,0-432.1,0c-40.1,0-54,14-54,54.6c0,112.1,0,224.4,0,336.5c0,33.6-0.4,67.3,0,100.9
		c0.4,28.2,15.4,46.1,40.7,46.3c75,0.6,149.9,0,224.9,0c1,0,111.7-0.5,2.7-1.7L-184.9,609.5z M-270.1,608.3"/>
</g>
<path class="st1" d="M399,666.1V469.3h-41.7c0-17,0-32.9,0-48.6s0-32.6,0-50.7h39.8c3.4-24.2,5-46.8,10.1-68.3
	c9.5-40.4,38-67.6,79.2-69c28.8-1,57.8,6.9,86.6,12c4.1,0.7,9.9,7.9,10.2,12.3c1,23.4,0.4,46.8,0.4,71.1c-12.5,0-23-0.3-33.4,0
	c-36.4,0.9-38.4-9.5-36.4,38.8c0,1,1.3,1.8,3.1,4.4h68.3c-6.2,33.4-12,65.2-18.1,98.5h-53v198.7"/>
<g>
	<path class="st2" d="M706.6,205.6c0,128.3,0,256.7,0,385c-0.9,4.9-1.7,9.8-2.9,14.6c-13.9,59.3-63.4,98.9-124.3,99
		c-119.3,0.2-238.7,0.1-358-0.1c-9.5,0-19.2-0.8-28.4-3C133,686.8,94.4,637.6,94.4,576c-0.1-118.7-0.1-237.5,0-356.2
		c0.1-60.8,38.3-109.6,97.3-124.3c5.4-1.3,10.8-2.3,16.3-3.4c128.3,0,256.7,0,385,0c1.5,0.4,3,0.9,4.5,1.2
		c49.3,8.1,83.3,35.4,101.3,81.9C702.6,184.8,704.1,195.4,706.6,205.6z M670.7,398.4c0-59.6,0.1-119.2,0-178.7
		c-0.1-52.6-39.3-91.7-91.9-91.8c-119-0.1-237.9-0.1-356.9,0c-52.3,0-91.6,39.2-91.6,91.5c-0.1,119.2-0.1,238.3,0,357.5
		c0,52.2,39.3,91.4,91.6,91.5c119,0.1,237.9,0.1,356.9-0.1c6.7,0,13.6-0.5,20.2-1.9c42.9-9.1,71.6-44.9,71.7-89.2
		C670.8,517.6,670.7,458,670.7,398.4z"/>
	<path class="st2" d="M499.3,582.3c-15.8-0.3-41.1-8.9-65.4-20.8c-52.2-25.4-95.8-61.9-134.2-105c-28.8-32.3-53.2-67.5-69.7-107.8
		c-8.7-21.4-14.7-43.4-13.7-66.7c0.7-18,4.9-35.6,18.9-47.6c17.7-15.2,37.8-26.5,62.7-16.8c9.6,3.7,17.3,9.9,22.7,18.6
		c8.7,14.1,17.7,28,25.2,42.6c9.6,18.6,6.9,36.7-6.3,52.9c-10.5,12.9-10.4,20.3,1.3,32c31.6,31.6,63.1,63.1,94.7,94.7
		c10.8,10.8,18.9,11.1,30.7,1.2c16.4-13.8,36.2-16.5,55-6.4c13.8,7.5,27.4,15.5,40.5,24.2c22.9,15.3,28.5,40.1,16.8,65
		C564.7,571.3,541.6,582.9,499.3,582.3z M511,546.5c15.3,0.6,27.6-3.7,34.6-19c4.5-9.9,3.7-15.8-5.7-21.5
		c-10.4-6.3-20.8-12.5-31.2-18.7c-9.8-5.9-12.9-5.6-21.9,1.7c-23.7,19.2-52.8,18.2-74.5-3.1c-33.3-32.9-66.3-66.1-99.4-99.3
		c-9.3-9.3-15.2-20.3-16.4-33.6c-1.5-16.2,3.3-30.2,14.1-42.3c4.5-5,6.6-10.5,2.9-16.8c-7.4-12.5-14.8-25-22.4-37.4
		c-2.8-4.5-7.1-7.1-12.6-6.3c-11.3,1.6-22.9,12.8-25.2,24.1c-3.4,16.8,0.1,32.9,5.4,48.7c11.1,33,29.1,62.3,50.7,89.4
		c38.6,48.3,83.7,89,139.6,116.7C468.5,538.6,488.9,545.9,511,546.5z"/>
</g>
</svg>
